<svg class="railroad" viewBox="0 0 930 820" xmlns="http://www.w3.org/2000/svg" xmlns:xlink="http://www.w3.org/1999/xlink">
<style type="text/css">
svg.railroad {
background-color: hsl(30, 20%, 95%);
background-size: 15px 15px;
background-image: linear-gradient(to right, rgba(30, 30, 30, .05) 1px, transparent 1px),
		  linear-gradient(to bottom, rgba(30, 30, 30, .05) 1px, transparent 1px);
}

svg.railroad rect.railroad_canvas {
stroke-width: 0px;
fill: none;
}

svg.railroad path {
stroke-width: 3px;
stroke: black;
fill: none;
}

svg.railroad .debug {
stroke-width: 1px;
stroke: red;
}

svg.railroad text {
font: 14px monospace;
text-anchor: middle;
}

svg.railroad .nonterminal text {
font-weight: bold;
}

svg.railroad text.comment {
font: italic 12px monospace;
}

svg.railroad rect {
stroke-width: 3px;
stroke: black;
fill:hsl(-290, 70%, 90%);
}

svg.railroad g.labeledbox > rect {
stroke-width: 1px;
stroke: grey;
stroke-dasharray: 5px;
fill:rgba(90, 90, 150, .1);
}
</style>
<rect class="railroad_canvas" height="100%" width="100%"/>
<g class="verticalgrid">
<g class="sequence">
<path d=" M 10 21 a 5 5 0 0 1 5 -5 a 5 5 0 0 1 5 5 a 5 5 0 0 1 -5 5 a 5 5 0 0 1 -5 -5 m 10 0 h 5"/>
<g class="sequence">
<text class="comment" x="61" y="26">
syntax</text>
<g class="sequence">
<g class="repeat">
<path d=" M 97 21 h 12 m 52 0 h 12 m -12 0 a 12 12 0 0 1 12 12 v 0 a 12 12 0 0 1 -12 12 m 0 0 h -52 m 29 0 l 5 -5 m 0 10 l -5 -5 m -29 0 a 12 12 0 0 1 -12 -12 v 0 a 12 12 0 0 1 12 -12"/>
<g/>
<g class="nonterminal">
<rect height="22" width="52" x="109" y="10"/>
<text x="135" y="26">
rule</text>
</g>
</g>
</g>
<path d=" M 87 21 h 10"/>
</g>
<path d=" M 183 21 a 5 5 0 0 1 5 -5 a 5 5 0 0 1 5 5 a 5 5 0 0 1 -5 5 a 5 5 0 0 1 -5 -5 m 10 0 h 5"/>
<path d=" M 25 21 h 10"/>
<path d=" M 173 21 h 10"/>
</g>
<g class="sequence">
<path d=" M 10 68 a 5 5 0 0 1 5 -5 a 5 5 0 0 1 5 5 a 5 5 0 0 1 -5 5 a 5 5 0 0 1 -5 -5 m 10 0 h 5"/>
<g class="sequence">
<text class="comment" x="54" y="73">
rule</text>
<g class="sequence">
<g class="nonterminal">
<rect height="22" width="132" x="83" y="57"/>
<text x="149" y="73">
opt_whitespace</text>
</g>
<g class="terminal">
<rect height="22" rx="10" ry="10" width="28" x="225" y="57"/>
<text x="239" y="73">
&lt;</text>
</g>
<g class="nonterminal">
<rect height="22" width="92" x="263" y="57"/>
<text x="309" y="73">
rule_name</text>
</g>
<g class="terminal">
<rect height="22" rx="10" ry="10" width="28" x="365" y="57"/>
<text x="379" y="73">
&gt;</text>
</g>
<g class="nonterminal">
<rect height="22" width="132" x="403" y="57"/>
<text x="469" y="73">
opt_whitespace</text>
</g>
<g class="terminal">
<rect height="22" rx="10" ry="10" width="44" x="545" y="57"/>
<text x="567" y="73">
::=</text>
</g>
<g class="nonterminal">
<rect height="22" width="132" x="599" y="57"/>
<text x="665" y="73">
opt_whitespace</text>
</g>
<g class="nonterminal">
<rect height="22" width="60" x="741" y="57"/>
<text x="771" y="73">
group</text>
</g>
<g class="nonterminal">
<rect height="22" width="84" x="811" y="57"/>
<text x="853" y="73">
line_end</text>
</g>
<path d=" M 215 68 h 10"/>
<path d=" M 253 68 h 10"/>
<path d=" M 355 68 h 10"/>
<path d=" M 393 68 h 10"/>
<path d=" M 535 68 h 10"/>
<path d=" M 589 68 h 10"/>
<path d=" M 731 68 h 10"/>
<path d=" M 801 68 h 10"/>
</g>
<path d=" M 73 68 h 10"/>
</g>
<path d=" M 905 68 a 5 5 0 0 1 5 -5 a 5 5 0 0 1 5 5 a 5 5 0 0 1 -5 5 a 5 5 0 0 1 -5 -5 m 10 0 h 5"/>
<path d=" M 25 68 h 10"/>
<path d=" M 895 68 h 10"/>
</g>
<g class="sequence">
<path d=" M 10 115 a 5 5 0 0 1 5 -5 a 5 5 0 0 1 5 5 a 5 5 0 0 1 -5 5 a 5 5 0 0 1 -5 -5 m 10 0 h 5"/>
<g class="sequence">
<text class="comment" x="89" y="120">
opt_whitespace</text>
<g class="sequence">
<g class="optional">
<path d=" M 153 115 h 24 m -24 0 a 12 12 0 0 0 12 -12 v 0 a 12 12 0 0 1 12 -12 h 52 m -23 0 l -5 -5 m 0 10 l 5 -5 m 23 0 a 12 12 0 0 1 12 12 v 0 a 12 12 0 0 0 12 12 h -24"/>
<g class="repeat">
<path d=" M 177 115 h 12 m 28 0 h 12 m -12 0 a 12 12 0 0 1 12 12 v 0 a 12 12 0 0 1 -12 12 m 0 0 h -28 a 12 12 0 0 1 -12 -12 v 0 a 12 12 0 0 1 12 -12"/>
<g/>
<g class="terminal">
<rect height="22" rx="10" ry="10" width="28" x="189" y="104"/>
<text x="203" y="120">
 </text>
</g>
</g>
</g>
</g>
<path d=" M 143 115 h 10"/>
</g>
<path d=" M 263 115 a 5 5 0 0 1 5 -5 a 5 5 0 0 1 5 5 a 5 5 0 0 1 -5 5 a 5 5 0 0 1 -5 -5 m 10 0 h 5"/>
<path d=" M 25 115 h 10"/>
<path d=" M 253 115 h 10"/>
</g>
<g class="sequence">
<path d=" M 10 175 a 5 5 0 0 1 5 -5 a 5 5 0 0 1 5 5 a 5 5 0 0 1 -5 5 a 5 5 0 0 1 -5 -5 m 10 0 h 5"/>
<g class="sequence">
<text class="comment" x="75" y="180">
expression</text>
<g class="sequence">
<g class="nonterminal">
<rect height="22" width="52" x="125" y="164"/>
<text x="151" y="180">
list</text>
</g>
<g class="optional">
<path d=" M 187 175 h 24 m -24 0 a 12 12 0 0 0 12 -12 v 0 a 12 12 0 0 1 12 -12 h 422 m -208 0 l -5 -5 m 0 10 l 5 -5 m 208 0 a 12 12 0 0 1 12 12 v 0 a 12 12 0 0 0 12 12 h -24"/>
<g class="sequence">
<g class="sequence">
<g class="nonterminal">
<rect height="22" width="132" x="211" y="164"/>
<text x="277" y="180">
opt_whitespace</text>
</g>
<g class="terminal">
<rect height="22" rx="10" ry="10" width="28" x="353" y="164"/>
<text x="367" y="180">
|</text>
</g>
<g class="nonterminal">
<rect height="22" width="132" x="391" y="164"/>
<text x="457" y="180">
opt_whitespace</text>
</g>
<g class="nonterminal">
<rect height="22" width="100" x="533" y="164"/>
<text x="583" y="180">
expression</text>
</g>
<path d=" M 343 175 h 10"/>
<path d=" M 381 175 h 10"/>
<path d=" M 523 175 h 10"/>
</g>
</g>
</g>
<path d=" M 177 175 h 10"/>
</g>
<path d=" M 115 175 h 10"/>
</g>
<path d=" M 667 175 a 5 5 0 0 1 5 -5 a 5 5 0 0 1 5 5 a 5 5 0 0 1 -5 5 a 5 5 0 0 1 -5 -5 m 10 0 h 5"/>
<path d=" M 25 175 h 10"/>
<path d=" M 657 175 h 10"/>
</g>
<g class="sequence">
<path d=" M 10 209 a 5 5 0 0 1 5 -5 a 5 5 0 0 1 5 5 a 5 5 0 0 1 -5 5 a 5 5 0 0 1 -5 -5 m 10 0 h 5"/>
<g class="sequence">
<text class="comment" x="57" y="214">
group</text>
<g class="choice">
<path d=" M 90 209 h 24 m 176 0 h 24"/>
<g class="sequence">
<g class="terminal">
<rect height="22" rx="10" ry="10" width="28" x="114" y="198"/>
<text x="128" y="214">
(</text>
</g>
<g class="nonterminal">
<rect height="22" width="100" x="152" y="198"/>
<text x="202" y="214">
expression</text>
</g>
<g class="terminal">
<rect height="22" rx="10" ry="10" width="28" x="262" y="198"/>
<text x="276" y="214">
)</text>
</g>
<path d=" M 142 209 h 10"/>
<path d=" M 252 209 h 10"/>
</g>
<path d=" M 90 209 a 12 12 0 0 1 12 12 v 9 m 200 0 v -9 a 12 12 0 0 1 12 -12"/>
<path d=" M 102 230 v 0 a 12 12 0 0 0 12 12 m 100 0 h 76 m -35 0 l -5 -5 m 0 10 l 5 -5 m 35 0 a 12 12 0 0 0 12 -12 v 0"/>
<g class="sequence">
<g class="nonterminal">
<rect height="22" width="100" x="114" y="231"/>
<text x="164" y="247">
expression</text>
</g>
</g>
</g>
<path d=" M 80 209 h 10"/>
</g>
<path d=" M 324 209 a 5 5 0 0 1 5 -5 a 5 5 0 0 1 5 5 a 5 5 0 0 1 -5 5 a 5 5 0 0 1 -5 -5 m 10 0 h 5"/>
<path d=" M 25 209 h 10"/>
<path d=" M 314 209 h 10"/>
</g>
<g class="sequence">
<path d=" M 10 276 a 5 5 0 0 1 5 -5 a 5 5 0 0 1 5 5 a 5 5 0 0 1 -5 5 a 5 5 0 0 1 -5 -5 m 10 0 h 5"/>
<g class="sequence">
<text class="comment" x="68" y="281">
line_end</text>
<g class="sequence">
<g class="nonterminal">
<rect height="22" width="132" x="111" y="265"/>
<text x="177" y="281">
opt_whitespace</text>
</g>
<g class="repeat">
<path d=" M 253 276 h 12 m 36 0 h 12 m -12 0 a 12 12 0 0 1 12 12 v 0 a 12 12 0 0 1 -12 12 m 0 0 h -36 a 12 12 0 0 1 -12 -12 v 0 a 12 12 0 0 1 12 -12"/>
<g/>
<g class="terminal">
<rect height="22" rx="10" ry="10" width="36" x="265" y="265"/>
<text x="283" y="281">
\n</text>
</g>
</g>
<path d=" M 243 276 h 10"/>
</g>
<path d=" M 101 276 h 10"/>
</g>
<path d=" M 323 276 a 5 5 0 0 1 5 -5 a 5 5 0 0 1 5 5 a 5 5 0 0 1 -5 5 a 5 5 0 0 1 -5 -5 m 10 0 h 5"/>
<path d=" M 25 276 h 10"/>
<path d=" M 313 276 h 10"/>
</g>
<g class="sequence">
<path d=" M 10 323 a 5 5 0 0 1 5 -5 a 5 5 0 0 1 5 5 a 5 5 0 0 1 -5 5 a 5 5 0 0 1 -5 -5 m 10 0 h 5"/>
<g class="sequence">
<text class="comment" x="54" y="328">
list</text>
<g class="choice">
<path d=" M 83 323 h 24 m 52 0 h 228 m -111 0 l -5 -5 m 0 10 l 5 -5 m 111 0"/>
<g class="sequence">
<g class="nonterminal">
<rect height="22" width="52" x="107" y="312"/>
<text x="133" y="328">
term</text>
</g>
</g>
<path d=" M 83 323 a 12 12 0 0 1 12 12 v 9 m 280 0 v -9 a 12 12 0 0 1 12 -12"/>
<path d=" M 95 344 v 0 a 12 12 0 0 0 12 12 m 256 0 h 0 a 12 12 0 0 0 12 -12 v 0"/>
<g class="sequence">
<g class="nonterminal">
<rect height="22" width="52" x="107" y="345"/>
<text x="133" y="361">
term</text>
</g>
<g class="nonterminal">
<rect height="22" width="132" x="169" y="345"/>
<text x="235" y="361">
opt_whitespace</text>
</g>
<g class="nonterminal">
<rect height="22" width="52" x="311" y="345"/>
<text x="337" y="361">
list</text>
</g>
<path d=" M 159 356 h 10"/>
<path d=" M 301 356 h 10"/>
</g>
</g>
<path d=" M 73 323 h 10"/>
</g>
<path d=" M 397 323 a 5 5 0 0 1 5 -5 a 5 5 0 0 1 5 5 a 5 5 0 0 1 -5 5 a 5 5 0 0 1 -5 -5 m 10 0 h 5"/>
<path d=" M 25 323 h 10"/>
<path d=" M 387 323 h 10"/>
</g>
<g class="sequence">
<path d=" M 10 390 a 5 5 0 0 1 5 -5 a 5 5 0 0 1 5 5 a 5 5 0 0 1 -5 5 a 5 5 0 0 1 -5 -5 m 10 0 h 5"/>
<g class="sequence">
<text class="comment" x="54" y="395">
term</text>
<g class="choice">
<path d=" M 83 390 h 24 m 76 0 h 116 m -55 0 l -5 -5 m 0 10 l 5 -5 m 55 0"/>
<g class="sequence">
<g class="nonterminal">
<rect height="22" width="76" x="107" y="379"/>
<text x="145" y="395">
literal</text>
</g>
</g>
<path d=" M 83 390 a 12 12 0 0 1 12 12 v 9 m 192 0 v -9 a 12 12 0 0 1 12 -12"/>
<path d=" M 95 411 v 0 a 12 12 0 0 0 12 12 m 168 0 h 0 a 12 12 0 0 0 12 -12 v 0"/>
<g class="sequence">
<g class="terminal">
<rect height="22" rx="10" ry="10" width="28" x="107" y="412"/>
<text x="121" y="428">
&lt;</text>
</g>
<g class="nonterminal">
<rect height="22" width="92" x="145" y="412"/>
<text x="191" y="428">
rule_name</text>
</g>
<g class="terminal">
<rect height="22" rx="10" ry="10" width="28" x="247" y="412"/>
<text x="261" y="428">
&gt;</text>
</g>
<path d=" M 135 423 h 10"/>
<path d=" M 237 423 h 10"/>
</g>
</g>
<path d=" M 73 390 h 10"/>
</g>
<path d=" M 309 390 a 5 5 0 0 1 5 -5 a 5 5 0 0 1 5 5 a 5 5 0 0 1 -5 5 a 5 5 0 0 1 -5 -5 m 10 0 h 5"/>
<path d=" M 25 390 h 10"/>
<path d=" M 299 390 h 10"/>
</g>
<g class="sequence">
<path d=" M 10 457 a 5 5 0 0 1 5 -5 a 5 5 0 0 1 5 5 a 5 5 0 0 1 -5 5 a 5 5 0 0 1 -5 -5 m 10 0 h 5"/>
<g class="sequence">
<text class="comment" x="64" y="462">
literal</text>
<g class="sequence">
<g class="terminal">
<rect height="22" rx="10" ry="10" width="28" x="104" y="446"/>
<text x="118" y="462">
&quot;</text>
</g>
<g class="nonterminal">
<rect height="22" width="52" x="142" y="446"/>
<text x="168" y="462">
text</text>
</g>
<g class="terminal">
<rect height="22" rx="10" ry="10" width="28" x="204" y="446"/>
<text x="218" y="462">
&quot;</text>
</g>
<path d=" M 132 457 h 10"/>
<path d=" M 194 457 h 10"/>
</g>
<path d=" M 94 457 h 10"/>
</g>
<path d=" M 242 457 a 5 5 0 0 1 5 -5 a 5 5 0 0 1 5 5 a 5 5 0 0 1 -5 5 a 5 5 0 0 1 -5 -5 m 10 0 h 5"/>
<path d=" M 25 457 h 10"/>
<path d=" M 232 457 h 10"/>
</g>
<g class="sequence">
<path d=" M 10 491 a 5 5 0 0 1 5 -5 a 5 5 0 0 1 5 5 a 5 5 0 0 1 -5 5 a 5 5 0 0 1 -5 -5 m 10 0 h 5"/>
<g class="sequence">
<text class="comment" x="54" y="496">
text</text>
<g class="sequence">
<g class="repeat">
<path d=" M 83 491 h 12 m 92 0 h 12 m -12 0 a 12 12 0 0 1 12 12 v 0 a 12 12 0 0 1 -12 12 m 0 0 h -92 m 49 0 l 5 -5 m 0 10 l -5 -5 m -49 0 a 12 12 0 0 1 -12 -12 v 0 a 12 12 0 0 1 12 -12"/>
<g/>
<g class="nonterminal">
<rect height="22" width="92" x="95" y="480"/>
<text x="141" y="496">
character</text>
</g>
</g>
</g>
<path d=" M 73 491 h 10"/>
</g>
<path d=" M 209 491 a 5 5 0 0 1 5 -5 a 5 5 0 0 1 5 5 a 5 5 0 0 1 -5 5 a 5 5 0 0 1 -5 -5 m 10 0 h 5"/>
<path d=" M 25 491 h 10"/>
<path d=" M 199 491 h 10"/>
</g>
<g class="sequence">
<path d=" M 10 538 a 5 5 0 0 1 5 -5 a 5 5 0 0 1 5 5 a 5 5 0 0 1 -5 5 a 5 5 0 0 1 -5 -5 m 10 0 h 5"/>
<g class="sequence">
<text class="comment" x="71" y="543">
character</text>
<g class="choice">
<path d=" M 118 538 h 24 m 68 0 h 24"/>
<g class="sequence">
<g class="nonterminal">
<rect height="22" width="68" x="142" y="527"/>
<text x="176" y="543">
letter</text>
</g>
</g>
<path d=" M 118 538 a 12 12 0 0 1 12 12 v 9 m 92 0 v -9 a 12 12 0 0 1 12 -12"/>
<path d=" M 130 559 v 0 a 12 12 0 0 0 12 12 m 60 0 h 8 a 12 12 0 0 0 12 -12 v 0"/>
<g class="sequence">
<g class="nonterminal">
<rect height="22" width="60" x="142" y="560"/>
<text x="172" y="576">
digit</text>
</g>
</g>
</g>
<path d=" M 108 538 h 10"/>
</g>
<path d=" M 244 538 a 5 5 0 0 1 5 -5 a 5 5 0 0 1 5 5 a 5 5 0 0 1 -5 5 a 5 5 0 0 1 -5 -5 m 10 0 h 5"/>
<path d=" M 25 538 h 10"/>
<path d=" M 234 538 h 10"/>
</g>
<g class="sequence">
<path d=" M 10 605 a 5 5 0 0 1 5 -5 a 5 5 0 0 1 5 5 a 5 5 0 0 1 -5 5 a 5 5 0 0 1 -5 -5 m 10 0 h 5"/>
<g class="sequence">
<text class="comment" x="61" y="610">
letter</text>
<g class="sequence">
<g class="terminal">
<rect height="22" rx="10" ry="10" width="84" x="97" y="594"/>
<text x="139" y="610">
[A-Za-z]</text>
</g>
</g>
<path d=" M 87 605 h 10"/>
</g>
<path d=" M 191 605 a 5 5 0 0 1 5 -5 a 5 5 0 0 1 5 5 a 5 5 0 0 1 -5 5 a 5 5 0 0 1 -5 -5 m 10 0 h 5"/>
<path d=" M 25 605 h 10"/>
<path d=" M 181 605 h 10"/>
</g>
<g class="sequence">
<path d=" M 10 639 a 5 5 0 0 1 5 -5 a 5 5 0 0 1 5 5 a 5 5 0 0 1 -5 5 a 5 5 0 0 1 -5 -5 m 10 0 h 5"/>
<g class="sequence">
<text class="comment" x="57" y="644">
digit</text>
<g class="sequence">
<g class="terminal">
<rect height="22" rx="10" ry="10" width="60" x="90" y="628"/>
<text x="120" y="644">
[0-9]</text>
</g>
</g>
<path d=" M 80 639 h 10"/>
</g>
<path d=" M 160 639 a 5 5 0 0 1 5 -5 a 5 5 0 0 1 5 5 a 5 5 0 0 1 -5 5 a 5 5 0 0 1 -5 -5 m 10 0 h 5"/>
<path d=" M 25 639 h 10"/>
<path d=" M 150 639 h 10"/>
</g>
<g class="sequence">
<path d=" M 10 686 a 5 5 0 0 1 5 -5 a 5 5 0 0 1 5 5 a 5 5 0 0 1 -5 5 a 5 5 0 0 1 -5 -5 m 10 0 h 5"/>
<g class="sequence">
<text class="comment" x="71" y="691">
rule_name</text>
<g class="sequence">
<g class="nonterminal">
<rect height="22" width="68" x="118" y="675"/>
<text x="152" y="691">
letter</text>
</g>
<g class="optional">
<path d=" M 196 686 h 24 m -24 0 a 12 12 0 0 0 12 -12 v 0 a 12 12 0 0 1 12 -12 h 116 m -55 0 l -5 -5 m 0 10 l 5 -5 m 55 0 a 12 12 0 0 1 12 12 v 0 a 12 12 0 0 0 12 12 h -24"/>
<g class="repeat">
<path d=" M 220 686 h 12 m 92 0 h 12 m -12 0 a 12 12 0 0 1 12 12 v 0 a 12 12 0 0 1 -12 12 m 0 0 h -92 m 49 0 l 5 -5 m 0 10 l -5 -5 m -49 0 a 12 12 0 0 1 -12 -12 v 0 a 12 12 0 0 1 12 -12"/>
<g/>
<g class="nonterminal">
<rect height="22" width="92" x="232" y="675"/>
<text x="278" y="691">
rule_char</text>
</g>
</g>
</g>
<path d=" M 186 686 h 10"/>
</g>
<path d=" M 108 686 h 10"/>
</g>
<path d=" M 370 686 a 5 5 0 0 1 5 -5 a 5 5 0 0 1 5 5 a 5 5 0 0 1 -5 5 a 5 5 0 0 1 -5 -5 m 10 0 h 5"/>
<path d=" M 25 686 h 10"/>
<path d=" M 360 686 h 10"/>
</g>
<g class="sequence">
<path d=" M 10 733 a 5 5 0 0 1 5 -5 a 5 5 0 0 1 5 5 a 5 5 0 0 1 -5 5 a 5 5 0 0 1 -5 -5 m 10 0 h 5"/>
<g class="sequence">
<text class="comment" x="71" y="738">
rule_char</text>
<g class="choice">
<path d=" M 118 733 h 24 m 68 0 h 24"/>
<g class="sequence">
<g class="nonterminal">
<rect height="22" width="68" x="142" y="722"/>
<text x="176" y="738">
letter</text>
</g>
</g>
<path d=" M 118 733 a 12 12 0 0 1 12 12 v 9 m 92 0 v -9 a 12 12 0 0 1 12 -12"/>
<path d=" M 130 754 v 33 m 92 0 v -33"/>
<path d=" M 130 754 v 0 a 12 12 0 0 0 12 12 m 60 0 h 8 a 12 12 0 0 0 12 -12 v 0"/>
<g class="sequence">
<g class="nonterminal">
<rect height="22" width="60" x="142" y="755"/>
<text x="172" y="771">
digit</text>
</g>
</g>
<path d=" M 130 787 v 0 a 12 12 0 0 0 12 12 m 28 0 h 40 a 12 12 0 0 0 12 -12 v 0"/>
<g class="sequence">
<g class="terminal">
<rect height="22" rx="10" ry="10" width="28" x="142" y="788"/>
<text x="156" y="804">
_</text>
</g>
</g>
</g>
<path d=" M 108 733 h 10"/>
</g>
<path d=" M 244 733 a 5 5 0 0 1 5 -5 a 5 5 0 0 1 5 5 a 5 5 0 0 1 -5 5 a 5 5 0 0 1 -5 -5 m 10 0 h 5"/>
<path d=" M 25 733 h 10"/>
<path d=" M 234 733 h 10"/>
</g>
</g>
</svg>
